<?xml version="1.0" encoding="UTF-8" standalone="no"?>
<!DOCTYPE svg PUBLIC "-//W3C//DTD SVG 1.1//EN" "http://www.w3.org/Graphics/SVG/1.1/DTD/svg11.dtd">
<svg width="100%" height="100%" viewBox="0 0 300 300" version="1.1" xmlns="http://www.w3.org/2000/svg" xmlns:xlink="http://www.w3.org/1999/xlink" xml:space="preserve" xmlns:serif="http://www.serif.com/" style="fill-rule:evenodd;clip-rule:evenodd;stroke-linejoin:round;stroke-miterlimit:1.41421;">
    <g transform="matrix(0.636809,0,0,0.636809,-218.813,-192.67)">
        <path d="M343.151,787.591L816.173,787.591L816.173,290.155L343.151,290.155L343.151,787.591ZM587.498,737.737L653.708,737.737L653.708,735.855C638.919,735.855 633.168,732.844 633.168,719.155L633.168,650.713C640.562,643.321 650.421,634.286 663.841,634.286C676.986,634.286 683.833,642.773 683.833,658.378L683.833,719.155C683.833,732.844 677.808,735.855 663.841,735.855L663.841,737.737L729.229,737.737L729.229,735.855C714.451,735.855 708.703,732.844 708.703,719.155L708.703,659.747C708.703,634.56 693.945,624.194 677.26,624.194C657.542,624.194 642.205,638.667 633.168,647.975L633.168,554.68L587.498,560.153L587.498,561.796C602.276,561.796 608.024,565.08 608.024,578.764L608.024,719.155C608.024,732.844 602.276,735.855 587.498,735.855L587.498,737.737ZM487.132,657.864C506.851,657.864 518.354,648.317 525.746,638.732C527.659,650.508 536.678,657.317 548.977,657.317C564.302,657.317 573.06,646.674 578.807,635.72L576.891,634.898C574.702,639.828 567.586,651.604 558.007,651.604C554.176,651.604 550.071,649.961 550.071,641.471L550.071,580.437C550.071,551.956 525.2,541.311 501.096,541.311C473.726,541.311 454.864,554.969 454.864,570.031C454.864,578.246 460.605,586.462 469.626,586.462C477.827,586.462 484.388,579.889 484.388,571.674C484.388,565.101 480.014,559.35 474,557.433C478.374,550.039 486.031,543.193 500.274,543.193C519.448,543.193 524.926,555.79 524.926,573.865L524.926,600.94C516.435,598.214 505.205,596.047 493.974,596.047C469.891,596.047 449.938,605.869 449.938,627.23C449.938,645.852 464.697,657.864 487.132,657.864ZM497.265,652.698C484.12,652.698 475.903,643.114 475.903,626.408C475.903,607.239 486.858,599.297 502.743,599.297C510.685,599.297 518.354,601.214 524.926,603.131L524.926,635.993C518.354,644.757 509.316,652.698 497.265,652.698ZM669.827,593.767L736.603,593.767L736.603,591.885C721.802,591.885 715.223,589.148 715.223,574.91L715.223,516.865C719.061,507.836 726.736,497.448 737.152,494.167C735.781,503.736 743.166,512.211 752.461,512.211C760.662,512.211 767.77,505.376 767.77,496.354C767.77,488.152 762.302,479.951 751.094,479.951C735.507,479.951 721.802,496.627 714.95,514.127L714.95,480.497L669.827,485.965L669.827,487.606C684.605,487.606 690.353,490.886 690.353,504.556L690.353,574.91C690.353,588.6 684.605,591.885 669.827,591.885L669.827,593.767ZM575.521,536.268C595.24,536.268 606.742,526.721 614.135,517.136C616.048,528.913 625.067,535.721 637.366,535.721C652.691,535.721 661.448,525.079 667.196,514.124L665.28,513.303C663.09,518.232 655.975,530.008 646.396,530.008C642.565,530.008 638.459,528.365 638.459,519.875L638.459,458.841C638.459,430.361 613.588,419.715 589.485,419.715C562.115,419.715 543.253,433.373 543.253,448.435C543.253,456.651 548.994,464.866 558.015,464.866C566.216,464.866 572.776,458.294 572.776,450.078C572.776,443.506 568.403,437.755 562.389,435.838C566.762,428.444 574.42,421.597 588.663,421.597C607.837,421.597 613.315,434.195 613.315,452.269L613.315,479.344C604.824,476.618 593.593,474.451 582.363,474.451C558.279,474.451 538.327,484.274 538.327,505.634C538.327,524.256 553.086,536.268 575.521,536.268ZM585.654,531.103C572.508,531.103 564.292,521.518 564.292,504.813C564.292,485.643 575.247,477.701 591.132,477.701C599.074,477.701 606.742,479.618 613.315,481.535L613.315,514.398C606.742,523.161 597.705,531.103 585.654,531.103ZM455.555,515.677C501.001,515.677 519.855,495.181 519.855,467.808C519.855,404.85 421.057,422.368 421.057,373.918C421.057,356.946 433.104,341.891 457.472,341.891C493.34,341.891 503.733,374.191 511.384,393.353L512.75,393.079L509.198,341.378C491.423,345.449 478.007,340.009 457.198,340.009C416.958,340.009 399.744,360.231 399.744,385.962C399.744,447.278 498.268,428.664 498.268,479.579C498.268,497.919 485.4,513.795 456.924,513.795C416.138,513.795 408.214,480.947 399.197,457.133L397.554,457.406L400.564,508.321C415.045,511.605 435.294,515.677 455.555,515.677Z" style="fill:url(#_Linear1);"/>
    </g>
    <defs>
        <linearGradient id="_Linear1" x1="0" y1="0" x2="1" y2="0" gradientUnits="userSpaceOnUse" gradientTransform="matrix(448.829,491.307,-491.307,448.829,350.595,295.081)"><stop offset="0" style="stop-color:rgb(0,195,255);stop-opacity:1"/><stop offset="1" style="stop-color:rgb(255,255,28);stop-opacity:1"/></linearGradient>
    </defs>
</svg>
